<svg xmlns="http://www.w3.org/2000/svg" viewBox="0 0 320 120" preserveAspectRatio="xMidYMid slice">
  <defs>
    <linearGradient id="bg" x1="0" y1="0" x2="0" y2="1"><stop offset="0" stop-color="#0c1622"/><stop offset="1" stop-color="#0b0e14"/></linearGradient>
    <radialGradient id="gl" cx="50%" cy="-10%" r="90%"><stop offset="0" stop-color="#5aa9e6" stop-opacity=".4"/><stop offset="1" stop-color="#5aa9e6" stop-opacity="0"/></radialGradient>
    <linearGradient id="vap" x1="0" y1="1" x2="0" y2="0"><stop offset="0" stop-color="#8ec5ff" stop-opacity=".5"/><stop offset="1" stop-color="#8ec5ff" stop-opacity="0"/></linearGradient>
  </defs>
  <rect width="320" height="120" fill="url(#bg)"/>
  <rect width="320" height="120" fill="url(#gl)"/>
  <g fill="url(#vap)"><ellipse cx="74" cy="34" rx="20" ry="14"/><ellipse cx="160" cy="26" rx="24" ry="16"/><ellipse cx="246" cy="34" rx="20" ry="14"/></g>
  <line x1="0" y1="100" x2="320" y2="100" stroke="#2c6fa3" stroke-opacity=".5"/>
  <g fill="#0f2236" stroke="#2c6fa3" stroke-width="1.5">
    <path d="M58 100 L62 52 Q74 44 86 52 L90 100 Z"/>
    <path d="M140 100 L146 44 Q160 34 174 44 L180 100 Z"/>
    <path d="M230 100 L234 52 Q246 44 258 52 L262 100 Z"/>
  </g>
  <g fill="none" stroke="#5aa9e6" stroke-width="1.5" stroke-opacity=".8">
    <path d="M62 64 H86"/><path d="M146 58 H174"/><path d="M234 64 H258"/>
    <path d="M60 78 H88"/><path d="M143 74 H177"/><path d="M232 78 H260"/>
  </g>
  <g fill="#5aa9e6"><rect x="14" y="84" width="30" height="16" rx="2" opacity=".7"/><rect x="276" y="84" width="30" height="16" rx="2" opacity=".7"/><rect x="104" y="88" width="24" height="12" rx="2" opacity=".5"/><rect x="192" y="88" width="24" height="12" rx="2" opacity=".5"/></g>
</svg>
