<svg xmlns="http://www.w3.org/2000/svg" viewBox="0 0 320 120" preserveAspectRatio="xMidYMid slice">
  <defs>
    <linearGradient id="bg" x1="0" y1="0" x2="0" y2="1"><stop offset="0" stop-color="#0c1f1a"/><stop offset="1" stop-color="#0b0e14"/></linearGradient>
    <radialGradient id="gl" cx="50%" cy="-10%" r="90%"><stop offset="0" stop-color="#5ae6d8" stop-opacity=".34"/><stop offset="1" stop-color="#5ae6d8" stop-opacity="0"/></radialGradient>
  </defs>
  <rect width="320" height="120" fill="url(#bg)"/>
  <rect width="320" height="120" fill="url(#gl)"/>
  <!-- balance scale -->
  <g stroke="#5ae6d8" stroke-width="2.5" fill="none" stroke-linecap="round">
    <line x1="160" y1="24" x2="160" y2="96"/>
    <line x1="108" y1="38" x2="212" y2="38"/>
    <rect x="150" y="96" width="20" height="6" rx="2" fill="#0e2a24"/>
    <path d="M108 38 L92 64 H124 Z" fill="#0e2a24"/>
    <path d="M212 38 L196 64 H228 Z" fill="#0e2a24"/>
  </g>
  <circle cx="160" cy="24" r="5" fill="#0e2a24" stroke="#5ae6d8" stroke-width="2.5"/>
  <g stroke="#2c9f7a" stroke-width="1.5"><line x1="108" y1="38" x2="108" y2="50"/><line x1="212" y1="38" x2="212" y2="50"/></g>
  <!-- document with seal, left -->
  <g transform="translate(34,30)"><rect width="40" height="54" rx="3" fill="#0e2a24" stroke="#2c9f7a" stroke-width="1.5"/><g stroke="#5ae6d8" stroke-width="2" stroke-opacity=".7"><line x1="8" y1="12" x2="32" y2="12"/><line x1="8" y1="22" x2="32" y2="22"/><line x1="8" y1="32" x2="26" y2="32"/></g><circle cx="30" cy="46" r="7" fill="none" stroke="#5ae6d8" stroke-width="2"/><path d="M27 46 l2 2 4 -5" stroke="#5ae6d8" stroke-width="2" fill="none" stroke-linecap="round"/></g>
  <!-- gavel hint, right -->
  <g transform="translate(258,40) rotate(35)" stroke="#5ae6d8" stroke-width="3" stroke-linecap="round"><rect x="-14" y="-7" width="28" height="14" rx="3" fill="#0e2a24"/><line x1="0" y1="7" x2="0" y2="34"/></g>
</svg>
